<?xml version="1.0" encoding="utf-8"?>
<!-- Generator: Adobe Illustrator 15.1.0, SVG Export Plug-In  -->
<!DOCTYPE svg PUBLIC "-//W3C//DTD SVG 1.1//EN" "http://www.w3.org/Graphics/SVG/1.1/DTD/svg11.dtd" [
	<!ENTITY ns_flows "http://ns.adobe.com/Flows/1.0/">
]>
<svg version="1.1"
	 xmlns="http://www.w3.org/2000/svg" xmlns:xlink="http://www.w3.org/1999/xlink" xmlns:a="http://ns.adobe.com/AdobeSVGViewerExtensions/3.0/"
	 x="0px" y="0px" width="489px" height="170px" viewBox="210.792 279.897 489 170" enable-background="new 210.792 279.897 489 170"
	 xml:space="preserve">
<defs>
</defs>
<g>
	<g>
		<g>
			<defs>
				<rect id="SVGID_3_" x="54" y="54" width="792" height="612"/>
			</defs>
			<clipPath id="SVGID_4_">
				<use xlink:href="#SVGID_3_"  overflow="visible"/>
			</clipPath>
		</g>
		<g>
			<defs>
				<rect id="SVGID_2_" x="54" y="54" width="792" height="612"/>
			</defs>
			<clipPath id="SVGID_5_">
				<use xlink:href="#SVGID_2_"  overflow="visible"/>
			</clipPath>
			<path clip-path="url(#SVGID_5_)" fill-rule="evenodd" clip-rule="evenodd" fill="#ED1C24" d="M295.703,442.372
				c-9.021,0-18.042,0.005-27.063-0.001c-4.588-0.004-7.3-2.727-7.302-7.326c-0.005-11.214-0.029-22.428,0.031-33.642
				c0.007-1.469-0.444-1.825-1.86-1.819c-11.214,0.054-22.428,0.034-33.642,0.025c-4.607-0.004-7.287-2.713-7.288-7.354
				c-0.004-17.993-0.004-35.985-0.001-53.977c0.001-4.729,2.66-7.392,7.396-7.395c11.214-0.009,22.428-0.03,33.642,0.026
				c1.383,0.006,1.758-0.367,1.752-1.751c-0.056-11.264-0.034-22.527-0.031-33.791c0.002-4.512,2.721-7.242,7.237-7.244
				c18.092-0.005,36.183-0.005,54.275,0.001c4.499,0.001,7.225,2.747,7.218,7.261c-0.005,3.507,0.382,3.14-3.081,3.148
				c-4.337,0.009-8.673,0.002-13.009,0.002c-2.947,0-5.012,1.766-5.057,4.685c-0.098,6.328-0.106,12.66-0.003,18.988
				c0.048,2.899,2.165,4.752,5.057,4.777c2.443,0.021,4.886,0.034,7.327-0.01c0.978-0.019,1.326,0.352,1.301,1.316
				c-0.048,1.893-0.063,3.789,0.004,5.681c0.039,1.07-0.377,1.371-1.397,1.357c-3.438-0.047-6.877-0.026-10.317-0.016
				c-2.014,0.006-3.248,1.234-3.252,3.24c-0.01,3.887-0.007,7.775-0.001,11.662c0.003,1.949,1.227,3.294,3.205,3.323
				c3.837,0.054,7.675,0.056,11.512-0.009c2.273-0.039,3.307-1.158,3.34-3.476c0.041-2.99,0.049-5.981,0.005-8.971
				c-0.018-1.121,0.285-1.591,1.519-1.552c2.888,0.089,5.781,0.062,8.671,0.01c1.101-0.019,1.512,0.368,1.477,1.478
				c-0.061,1.892,0.009,3.788-0.009,5.681c-0.022,2.242,1.434,4.363,4.399,4.268c5.079-0.165,10.166-0.042,15.25-0.046
				c2.544-0.003,3.917-1.391,3.92-3.971c0.006-4.785,0.039-9.57-0.021-14.354c-0.016-1.27,0.314-1.859,1.673-1.737
				c1.039,0.094,2.092,0.016,3.139,0.023c4.336,0.027,7.1,2.769,7.107,7.083c0.011,6.728,0.004,13.457,0.003,20.185
				c0,11.313,0.003,22.627-0.001,33.94c-0.002,4.91-2.623,7.516-7.577,7.519c-11.064,0.008-22.129,0.004-33.193,0.005
				c-1.986,0-1.987,0-1.987,1.927c0,11.164,0.002,22.328-0.002,33.492c-0.002,4.609-2.71,7.333-7.304,7.337
				C313.744,442.377,304.724,442.372,295.703,442.372"/>
			<path clip-path="url(#SVGID_5_)" fill-rule="evenodd" clip-rule="evenodd" fill="#ED1C24" d="M325.65,316.435
				c0-2.093-0.022-4.186,0.005-6.279c0.036-2.801,1.353-4.09,4.13-4.092c3.887-0.002,7.775-0.037,11.66,0.022
				c1.214,0.018,1.753-0.333,1.671-1.61c-0.079-1.24-0.061-2.493,0.004-3.735c0.077-1.512,0.76-2.136,2.274-2.151
				c2.093-0.019,4.186-0.019,6.279,0c1.498,0.014,2.291,0.791,2.31,2.288c0.027,2.093,0.021,4.186,0.003,6.279
				c-0.014,1.558-0.673,2.245-2.274,2.312c-1.194,0.049-2.393,0.02-3.588-0.01c-0.952-0.024-1.328,0.395-1.321,1.349
				c0.026,3.986,0.025,7.973,0,11.959c-0.006,0.885,0.305,1.287,1.219,1.247c0.995-0.043,1.993-0.006,2.99-0.009
				c1.169-0.003,1.754,0.632,1.774,1.745c0.037,1.943,0.004,3.887,0.014,5.831c0.006,1.164-0.635,1.816-1.713,1.85
				c-2.239,0.071-4.484,0.055-6.725-0.005c-1.185-0.032-1.787-0.706-1.721-1.953c0.05-0.945-0.024-1.895,0.014-2.84
				c0.046-1.142-0.415-1.58-1.595-1.561c-3.637,0.056-7.276,0.034-10.913,0.006c-3.317-0.025-4.48-1.214-4.502-4.514
				c-0.001-0.099-0.001-0.199-0.001-0.298v-5.831H325.65z"/>
			<path clip-path="url(#SVGID_5_)" d="M384.665,347.556h9.835v4.303c0.947-1.895,2.503-3.394,4.667-4.495
				c2.165-1.101,4.515-1.652,7.05-1.652c1.562,0,3.086,0.243,4.572,0.73c1.484,0.487,2.842,1.236,4.072,2.247
				c1.229,1.012,2.228,2.273,2.996,3.784c1.639-2.1,3.765-3.732,6.377-4.898c2.613-1.165,5.327-1.748,8.145-1.748
				c2.151,0,4.251,0.353,6.3,1.057c2.049,0.704,3.855,1.728,5.417,3.073c1.562,1.345,2.804,3.054,3.727,5.129
				c0.922,2.074,1.383,4.482,1.383,7.222v28.89h-10.45v-23.973c0-2.433-0.378-4.48-1.133-6.146c-0.756-1.665-1.742-2.9-2.958-3.708
				c-1.217-0.806-2.542-1.21-3.977-1.21c-2.407,0-4.533,1.006-6.377,3.016c-1.844,2.011-2.766,4.693-2.766,8.048v23.973h-9.835
				v-25.202c0-1.997-0.416-3.727-1.248-5.186c-0.833-1.46-1.94-2.574-3.323-3.342c-1.383-0.769-2.83-1.153-4.341-1.153
				c-1.435,0-2.785,0.359-4.053,1.075c-1.268,0.718-2.292,1.806-3.074,3.266c-0.781,1.46-1.171,3.24-1.171,5.34v25.202h-9.835
				V347.556z"/>
			<path clip-path="url(#SVGID_5_)" d="M455.967,369.068c0-3.227,0.75-6.55,2.248-9.969c1.498-3.418,3.963-6.3,7.395-8.643
				c3.432-2.344,7.799-3.515,13.101-3.515c4.327,0,8.195,0.909,11.603,2.727c3.405,1.819,6.05,4.502,7.933,8.049
				c1.882,3.546,2.823,7.779,2.823,12.696c0,1.332-0.076,2.727-0.23,4.188h-33.191c0.922,2.356,2.471,4.214,4.648,5.571
				c2.175,1.357,4.558,2.036,7.145,2.036c3.688,0,6.723-1.307,9.105-3.919h11.064c-0.795,2.639-2.127,5.046-3.996,7.223
				s-4.168,3.932-6.896,5.263c-2.727,1.332-5.653,2.087-8.777,2.267c-0.205,0-0.379,0.006-0.52,0.02
				c-0.141,0.013-0.287,0.02-0.441,0.02c-3.1,0-6.063-0.628-8.893-1.883c-2.831-1.255-5.315-2.958-7.453-5.109
				c-2.139-2.151-3.798-4.559-4.976-7.223c-1.179-2.663-1.767-5.34-1.767-8.029C455.891,370.042,455.916,369.453,455.967,369.068
				 M479.324,357.39c-2.33,0-4.393,0.391-6.186,1.172c-1.794,0.782-3.246,1.767-4.359,2.958c-1.114,1.191-1.902,2.479-2.363,3.861
				h23.973c-0.691-2.074-1.902-3.932-3.631-5.571c-1.729-1.638-3.86-2.458-6.396-2.458
				C479.9,357.352,479.554,357.365,479.324,357.39"/>
			<path clip-path="url(#SVGID_5_)" d="M540.792,351.243v-17.825h10.449v57.779h-9.835v-6.146c-1.383,2.484-3.496,4.335-6.339,5.551
				c-2.843,1.217-5.442,1.825-7.798,1.825c-3.663,0-7.217-1.012-10.661-3.035c-3.444-2.022-6.218-4.783-8.317-8.279
				s-3.15-7.305-3.15-11.429c0-4.636,1.096-8.745,3.285-12.331s5.039-6.32,8.547-8.202c3.51-1.883,7.146-2.824,10.911-2.824
				c3.099,0,5.48,0.365,7.146,1.095S538.615,349.425,540.792,351.243 M516.205,369.068c0,2.716,0.596,5.053,1.786,7.012
				s2.74,3.433,4.648,4.418c1.908,0.986,3.925,1.479,6.051,1.479c3.278,0,6.146-1.107,8.605-3.323s3.828-5.41,4.11-9.586
				c0.025-0.255,0.039-0.614,0.039-1.075c0-2.305-0.583-4.328-1.748-6.07c-1.166-1.74-2.709-3.065-4.63-3.976
				c-1.921-0.909-3.932-1.364-6.031-1.364c-3.329,0-6.229,1.063-8.701,3.189S516.486,364.997,516.205,369.068"/>
			<path clip-path="url(#SVGID_5_)" d="M592.425,351.243v-17.825h10.449v57.779h-9.835v-6.146c-1.383,2.484-3.496,4.335-6.339,5.551
				c-2.843,1.217-5.442,1.825-7.798,1.825c-3.663,0-7.217-1.012-10.661-3.035c-3.445-2.022-6.218-4.783-8.317-8.279
				c-2.101-3.496-3.15-7.305-3.15-11.429c0-4.636,1.095-8.745,3.285-12.331c2.189-3.586,5.038-6.32,8.548-8.202
				c3.508-1.883,7.146-2.824,10.91-2.824c3.099,0,5.48,0.365,7.146,1.095S590.248,349.425,592.425,351.243 M567.838,369.068
				c0,2.716,0.596,5.053,1.786,7.012c1.191,1.959,2.74,3.433,4.648,4.418c1.908,0.986,3.925,1.479,6.051,1.479
				c3.278,0,6.146-1.107,8.605-3.323s3.828-5.41,4.11-9.586c0.025-0.255,0.039-0.614,0.039-1.075c0-2.305-0.583-4.328-1.748-6.07
				c-1.166-1.74-2.709-3.065-4.63-3.976c-1.921-0.909-3.932-1.364-6.031-1.364c-3.329,0-6.23,1.063-8.701,3.189
				C569.496,361.898,568.119,364.997,567.838,369.068"/>
			<polygon clip-path="url(#SVGID_5_)" points="621.313,333.418 621.313,366.61 634.836,347.556 647.744,347.556 631.763,368.454 
				650.203,391.197 636.065,391.197 621.313,370.913 621.313,391.197 610.864,391.197 610.864,333.418 			"/>
			<path clip-path="url(#SVGID_5_)" d="M656.351,333.418H666.8v8.605h-10.449V333.418z M656.351,347.556H666.8v43.642h-10.449
				V347.556z"/>
			<polygon clip-path="url(#SVGID_5_)" points="676.021,347.556 676.021,333.418 686.47,333.418 686.47,347.556 692.616,347.556 
				692.616,356.776 686.47,356.776 686.47,391.197 676.021,391.197 676.021,356.776 670.488,356.776 670.488,347.556 			"/>
		</g>
		<g>
			<defs>
				<rect id="SVGID_1_" x="54" y="54" width="792" height="612"/>
			</defs>
			<clipPath id="SVGID_6_">
				<use xlink:href="#SVGID_1_"  overflow="visible"/>
			</clipPath>
		</g>
	</g>
	<line fill="none" stroke="#000000" stroke-width="0.3" x1="54" y1="0" x2="54" y2="36"/>
	<line fill="none" stroke="#000000" stroke-width="0.3" x1="0" y1="54" x2="36" y2="54"/>
	<line fill="none" stroke="#000000" stroke-width="0.3" x1="0" y1="666" x2="36" y2="666"/>
	<line fill="none" stroke="#000000" stroke-width="0.3" x1="54" y1="720" x2="54" y2="684"/>
	<line fill="none" stroke="#000000" stroke-width="0.3" x1="846" y1="0" x2="846" y2="36"/>
	<line fill="none" stroke="#000000" stroke-width="0.3" x1="900" y1="54" x2="864" y2="54"/>
	<line fill="none" stroke="#000000" stroke-width="0.3" x1="900" y1="666" x2="864" y2="666"/>
	<line fill="none" stroke="#000000" stroke-width="0.3" x1="846" y1="720" x2="846" y2="684"/>
</g>
</svg>
